<svg version="1.1" id="Layer_1" xmlns="http://www.w3.org/2000/svg" xmlns:xlink="http://www.w3.org/1999/xlink" x="0px" y="0px"
	 width="100%" viewBox="0 0 624 186" enable-background="new 0 0 624 186" xml:space="preserve">
<path fill="#EEEAE7" opacity="1.000000" stroke="none" 
	d="
M452.000000,187.000000 
	C301.379669,187.000000 151.259338,187.000000 1.069506,187.000000 
	C1.069506,125.065536 1.069506,63.130970 1.069506,1.098203 
	C208.999969,1.098203 416.999969,1.098203 624.973267,1.098203 
	C624.973267,63.073933 624.973267,125.036972 624.973267,187.000000 
	C567.464355,187.000000 509.982178,187.000000 452.000000,187.000000 
M444.240753,154.660339 
	C449.456116,155.684067 450.617615,153.381775 450.537781,148.393356 
	C450.239166,129.736771 450.418091,111.072540 450.418030,92.411179 
	C450.417969,80.470459 450.423218,80.677330 462.505798,80.373711 
	C467.424255,80.250122 470.120148,81.145973 469.300690,86.796494 
	C469.028320,88.674614 469.662659,90.745438 470.145935,92.661720 
	C472.760498,103.028770 480.596436,108.202438 489.897888,111.167053 
	C500.608215,114.580719 511.640625,116.975441 522.403198,120.240974 
	C524.485901,120.872902 525.970154,123.476997 527.730469,125.171364 
	C525.775391,126.936913 523.981445,128.951660 521.797791,130.363770 
	C520.691589,131.079178 518.883667,130.773285 517.389709,130.815445 
	C502.210266,131.243988 488.324341,126.757256 475.112946,119.684013 
	C473.472137,118.805542 471.726227,118.123421 469.230316,116.986481 
	C469.230316,126.088051 469.377960,134.204575 469.156494,142.311020 
	C469.069885,145.481247 470.070648,147.292999 473.071228,148.263443 
	C480.901306,150.795914 488.542755,154.134155 496.536316,155.891266 
	C511.887177,159.265656 527.247986,158.973648 541.910461,152.403137 
	C559.690918,144.435379 566.273438,121.421280 555.160583,106.238792 
	C550.318665,99.623657 543.055359,96.527321 535.587158,94.242043 
	C526.114685,91.343483 516.404968,89.219841 506.935913,86.311546 
	C505.071045,85.738777 503.834778,83.119400 502.308594,81.443886 
	C503.880859,80.042152 505.272919,78.299309 507.081024,77.343903 
	C508.595428,76.543686 510.684021,76.163200 512.366028,76.460045 
	C520.659912,77.923737 529.013123,79.268486 537.125488,81.466888 
	C542.563721,82.940628 547.634827,85.769051 553.581848,88.293411 
	C553.581848,79.282478 553.472290,70.999008 553.643555,62.721344 
	C553.700623,59.965820 552.742126,58.688366 550.227600,57.546955 
	C534.704224,50.500542 518.536377,47.752972 501.698334,50.480774 
	C490.832458,52.241070 480.972015,56.325783 474.306549,65.861176 
	C473.936554,66.390472 473.101868,66.594925 471.754700,67.369667 
	C471.754700,62.023262 471.754700,57.460278 471.754700,52.532501 
	C466.776947,52.532501 462.307190,52.532146 457.837433,52.532578 
	C450.416870,52.533298 450.417206,52.533512 450.417786,45.326797 
	C450.418304,39.237095 450.417908,33.147392 450.417908,26.589680 
	C439.175354,27.814934 428.609894,28.863440 418.094666,30.283806 
	C417.124725,30.414822 415.876556,32.877316 415.786469,34.321396 
	C415.496582,38.968235 415.552582,43.650661 415.741241,48.308590 
	C415.875183,51.615078 414.535400,52.657833 411.327637,52.589733 
	C403.500061,52.423557 395.662262,52.381142 387.837311,52.600666 
	C383.965485,52.709290 382.481934,51.473965 382.646057,47.462643 
	C382.923401,40.684616 382.722137,33.887005 382.722137,26.641039 
	C371.749542,27.806067 361.348938,28.804350 350.996948,30.171087 
	C349.944916,30.309984 348.504608,32.620758 348.413635,34.000736 
	C348.096466,38.811695 348.173401,43.660629 348.338623,48.486980 
	C348.441040,51.479572 347.408905,52.727440 344.316803,52.580566 
	C340.340271,52.391682 336.347961,52.534622 332.038025,52.534622 
	C330.707733,59.508175 329.412445,66.298325 327.965973,73.881050 
	C327.138397,72.534210 326.748840,72.014145 326.475769,71.438805 
	C322.406830,62.865093 316.383698,56.206516 307.219147,53.161259 
	C284.938049,45.757572 263.706726,49.773113 243.150330,59.670986 
	C242.149139,60.153053 240.942184,61.541428 240.925064,62.526791 
	C240.758179,72.125488 240.824646,81.728233 240.824646,92.244316 
	C243.979294,90.580864 246.276733,89.383545 248.561401,88.162292 
	C259.688507,82.214417 271.222992,77.895874 284.175415,79.173286 
	C291.871613,79.932320 294.736298,82.719658 295.990112,91.322098 
	C293.799805,91.691673 291.600098,92.252762 289.372162,92.407951 
	C274.879761,93.417320 260.731995,95.908852 247.730240,102.738533 
	C236.260544,108.763435 231.094498,118.442802 232.124939,131.394516 
	C233.035416,142.838425 238.945709,151.070312 249.640656,154.470688 
	C264.621307,159.233627 279.437836,158.540680 292.888306,149.041824 
	C294.242554,148.085449 295.659241,147.217514 297.602905,145.944351 
	C297.847260,149.393082 298.018738,151.813339 298.198639,154.352585 
	C308.748047,154.352585 318.975830,154.352585 329.668884,154.352585 
	C329.668884,129.676468 329.668884,105.309227 329.668884,80.474205 
	C334.261108,80.474205 338.419952,80.755928 342.523468,80.399818 
	C347.198273,79.994133 348.830383,81.430420 348.765900,86.388588 
	C348.494965,107.212486 348.650818,128.041931 348.650452,148.869339 
	C348.650421,150.644531 348.650452,152.419724 348.650452,154.660385 
	C358.664856,154.660385 367.972229,154.397873 377.253998,154.771652 
	C381.862183,154.957230 383.205353,153.670517 383.151031,148.998627 
	C382.905029,127.840836 383.130859,106.677895 382.964691,85.518547 
	C382.933807,81.587044 384.086761,80.248444 388.069794,80.392242 
	C395.724304,80.668579 403.403656,80.680099 411.057251,80.391151 
	C415.276642,80.231850 416.466949,81.745964 416.434540,85.839149 
	C416.268311,106.831871 416.347595,127.826614 416.369354,148.820618 
	C416.371338,150.730453 416.573914,152.640076 416.689667,154.660263 
	C425.983368,154.660263 434.642059,154.660263 444.240753,154.660339 
M118.185608,109.798561 
	C117.429840,112.790787 116.674080,115.783012 115.561455,120.188103 
	C114.373772,117.935143 113.581764,116.946220 113.303864,115.829376 
	C108.313690,95.773918 103.413589,75.695961 98.372833,55.653351 
	C98.080124,54.489506 96.770523,52.708927 95.907364,52.693275 
	C84.819115,52.492195 73.725990,52.560425 61.803257,52.560425 
	C63.136177,57.230644 64.237534,61.161812 65.380028,65.080986 
	C73.711853,93.662140 82.008583,122.253799 90.507576,150.785202 
	C90.970222,152.338348 93.118370,154.459061 94.526077,154.493164 
	C106.679375,154.787491 118.845139,154.772263 131.000061,154.514160 
	C132.391327,154.484634 134.552002,152.640274 134.972000,151.226318 
	C137.324539,143.306366 139.196472,135.245239 141.338196,127.260666 
	C144.234573,116.462639 147.226624,105.690269 150.457611,93.883797 
	C151.255493,95.424393 151.633026,95.919151 151.782074,96.475159 
	C156.663162,114.682419 161.607132,132.873764 166.299042,151.129852 
	C167.057983,154.082901 168.422806,154.732468 171.144562,154.707153 
	C182.637650,154.600281 194.136490,154.489929 205.623947,154.766205 
	C209.157516,154.851181 210.331787,153.110489 211.121399,150.394958 
	C219.214691,122.561577 227.300659,94.726044 235.364639,66.884148 
	C236.706635,62.250771 237.933243,57.583969 239.263336,52.750336 
	C227.386993,52.750336 216.272659,52.750336 204.796570,52.750336 
	C199.334717,74.926117 194.636322,97.184792 187.794281,118.918549 
	C182.385513,102.243706 177.820480,85.719536 173.197906,69.211479 
	C171.773270,64.123825 171.657471,57.235939 168.265640,54.540028 
	C164.938614,51.895615 158.208740,53.419853 152.968430,53.323677 
	C146.383240,53.202820 139.794159,53.294559 133.521652,53.294559 
	C132.147049,58.253223 130.981934,62.378696 129.860428,66.515999 
	C126.023193,80.671860 122.201271,94.831886 118.185608,109.798561 
z"/>
<path fill="#050505" opacity="1.000000" stroke="none" 
	d="
M443.770752,154.660309 
	C434.642059,154.660263 425.983368,154.660263 416.689667,154.660263 
	C416.573914,152.640076 416.371338,150.730453 416.369354,148.820618 
	C416.347595,127.826614 416.268311,106.831871 416.434540,85.839149 
	C416.466949,81.745964 415.276642,80.231850 411.057251,80.391151 
	C403.403656,80.680099 395.724304,80.668579 388.069794,80.392242 
	C384.086761,80.248444 382.933807,81.587044 382.964691,85.518547 
	C383.130859,106.677895 382.905029,127.840836 383.151031,148.998627 
	C383.205353,153.670517 381.862183,154.957230 377.253998,154.771652 
	C367.972229,154.397873 358.664856,154.660385 348.650452,154.660385 
	C348.650452,152.419724 348.650421,150.644531 348.650452,148.869339 
	C348.650818,128.041931 348.494965,107.212486 348.765900,86.388588 
	C348.830383,81.430420 347.198273,79.994133 342.523468,80.399818 
	C338.419952,80.755928 334.261108,80.474205 329.668884,80.474205 
	C329.668884,105.309227 329.668884,129.676468 329.668884,154.352585 
	C318.975830,154.352585 308.748047,154.352585 298.198639,154.352585 
	C298.018738,151.813339 297.847260,149.393082 297.602905,145.944351 
	C295.659241,147.217514 294.242554,148.085449 292.888306,149.041824 
	C279.437836,158.540680 264.621307,159.233627 249.640656,154.470688 
	C238.945709,151.070312 233.035416,142.838425 232.124939,131.394516 
	C231.094498,118.442802 236.260544,108.763435 247.730240,102.738533 
	C260.731995,95.908852 274.879761,93.417320 289.372162,92.407951 
	C291.600098,92.252762 293.799805,91.691673 295.990112,91.322098 
	C294.736298,82.719658 291.871613,79.932320 284.175415,79.173286 
	C271.222992,77.895874 259.688507,82.214417 248.561401,88.162292 
	C246.276733,89.383545 243.979294,90.580864 240.824646,92.244316 
	C240.824646,81.728233 240.758179,72.125488 240.925064,62.526791 
	C240.942184,61.541428 242.149139,60.153053 243.150330,59.670986 
	C263.706726,49.773113 284.938049,45.757572 307.219147,53.161259 
	C316.383698,56.206516 322.406830,62.865093 326.475769,71.438805 
	C326.748840,72.014145 327.138397,72.534210 327.965973,73.881050 
	C329.412445,66.298325 330.707733,59.508175 332.038025,52.534622 
	C336.347961,52.534622 340.340271,52.391682 344.316803,52.580566 
	C347.408905,52.727440 348.441040,51.479572 348.338623,48.486980 
	C348.173401,43.660629 348.096466,38.811695 348.413635,34.000736 
	C348.504608,32.620758 349.944916,30.309984 350.996948,30.171087 
	C361.348938,28.804350 371.749542,27.806067 382.722137,26.641039 
	C382.722137,33.887005 382.923401,40.684616 382.646057,47.462643 
	C382.481934,51.473965 383.965485,52.709290 387.837311,52.600666 
	C395.662262,52.381142 403.500061,52.423557 411.327637,52.589733 
	C414.535400,52.657833 415.875183,51.615078 415.741241,48.308590 
	C415.552582,43.650661 415.496582,38.968235 415.786469,34.321396 
	C415.876556,32.877316 417.124725,30.414822 418.094666,30.283806 
	C428.609894,28.863440 439.175354,27.814934 450.417908,26.589680 
	C450.417908,33.147392 450.418304,39.237095 450.417786,45.326797 
	C450.417206,52.533512 450.416870,52.533298 457.837433,52.532578 
	C462.307190,52.532146 466.776947,52.532501 471.754700,52.532501 
	C471.754700,57.460278 471.754700,62.023262 471.754700,67.369667 
	C473.101868,66.594925 473.936554,66.390472 474.306549,65.861176 
	C480.972015,56.325783 490.832458,52.241070 501.698334,50.480774 
	C518.536377,47.752972 534.704224,50.500542 550.227600,57.546955 
	C552.742126,58.688366 553.700623,59.965820 553.643555,62.721344 
	C553.472290,70.999008 553.581848,79.282478 553.581848,88.293411 
	C547.634827,85.769051 542.563721,82.940628 537.125488,81.466888 
	C529.013123,79.268486 520.659912,77.923737 512.366028,76.460045 
	C510.684021,76.163200 508.595428,76.543686 507.081024,77.343903 
	C505.272919,78.299309 503.880859,80.042152 502.308594,81.443893 
	C503.834778,83.119400 505.071045,85.738777 506.935913,86.311546 
	C516.404968,89.219841 526.114685,91.343483 535.587158,94.242043 
	C543.055359,96.527321 550.318665,99.623657 555.160583,106.238792 
	C566.273438,121.421280 559.690918,144.435379 541.910461,152.403137 
	C527.247986,158.973648 511.887177,159.265656 496.536316,155.891266 
	C488.542755,154.134155 480.901306,150.795914 473.071228,148.263443 
	C470.070648,147.292999 469.069885,145.481247 469.156494,142.311020 
	C469.377960,134.204575 469.230316,126.088051 469.230316,116.986481 
	C471.726227,118.123421 473.472137,118.805542 475.112946,119.684013 
	C488.324341,126.757256 502.210266,131.243988 517.389709,130.815445 
	C518.883667,130.773285 520.691589,131.079178 521.797791,130.363770 
	C523.981445,128.951660 525.775391,126.936913 527.730469,125.171356 
	C525.970154,123.476997 524.485901,120.872902 522.403198,120.240974 
	C511.640625,116.975441 500.608215,114.580719 489.897888,111.167053 
	C480.596436,108.202438 472.760498,103.028770 470.145935,92.661720 
	C469.662659,90.745438 469.028320,88.674614 469.300690,86.796494 
	C470.120148,81.145973 467.424255,80.250122 462.505798,80.373711 
	C450.423218,80.677330 450.417969,80.470459 450.418030,92.411179 
	C450.418091,111.072540 450.239166,129.736771 450.537781,148.393356 
	C450.617615,153.381775 449.456116,155.684067 443.770752,154.660309 
M296.439087,119.276787 
	C296.428497,117.611275 296.695312,115.876900 296.305206,114.305626 
	C296.064117,113.334641 294.635040,111.774460 294.059448,111.903763 
	C285.891541,113.738724 277.686096,115.516624 269.691803,117.967384 
	C265.812073,119.156761 263.637054,123.057526 265.431396,126.742355 
	C266.627319,129.198257 270.029144,131.576508 272.789856,132.075851 
	C279.472992,133.284637 285.920471,131.630829 291.905975,128.127579 
	C295.126984,126.242348 297.023438,123.993668 296.439087,119.276787 
z"/>
<path fill="#040404" opacity="1.000000" stroke="none" 
	d="
M118.279556,109.394440 
	C122.201271,94.831886 126.023193,80.671860 129.860428,66.515999 
	C130.981934,62.378696 132.147049,58.253223 133.521652,53.294559 
	C139.794159,53.294559 146.383240,53.202820 152.968430,53.323677 
	C158.208740,53.419853 164.938614,51.895615 168.265640,54.540028 
	C171.657471,57.235939 171.773270,64.123825 173.197906,69.211479 
	C177.820480,85.719536 182.385513,102.243706 187.794281,118.918549 
	C194.636322,97.184792 199.334717,74.926117 204.796570,52.750336 
	C216.272659,52.750336 227.386993,52.750336 239.263336,52.750336 
	C237.933243,57.583969 236.706635,62.250771 235.364639,66.884148 
	C227.300659,94.726044 219.214691,122.561577 211.121399,150.394958 
	C210.331787,153.110489 209.157516,154.851181 205.623947,154.766205 
	C194.136490,154.489929 182.637650,154.600281 171.144562,154.707153 
	C168.422806,154.732468 167.057983,154.082901 166.299042,151.129852 
	C161.607132,132.873764 156.663162,114.682419 151.782074,96.475159 
	C151.633026,95.919151 151.255493,95.424393 150.457611,93.883797 
	C147.226624,105.690269 144.234573,116.462639 141.338196,127.260666 
	C139.196472,135.245239 137.324539,143.306366 134.972000,151.226318 
	C134.552002,152.640274 132.391327,154.484634 131.000061,154.514160 
	C118.845139,154.772263 106.679375,154.787491 94.526077,154.493164 
	C93.118370,154.459061 90.970222,152.338348 90.507576,150.785202 
	C82.008583,122.253799 73.711853,93.662140 65.380028,65.080986 
	C64.237534,61.161812 63.136177,57.230644 61.803257,52.560425 
	C73.725990,52.560425 84.819115,52.492195 95.907364,52.693275 
	C96.770523,52.708927 98.080124,54.489506 98.372833,55.653351 
	C103.413589,75.695961 108.313690,95.773918 113.303864,115.829376 
	C113.581764,116.946220 114.373772,117.935143 115.561455,120.188103 
	C116.674080,115.783012 117.429840,112.790787 118.279556,109.394440 
z"/>
<path fill="#E5E1DF" opacity="1.000000" stroke="none" 
	d="
M296.439362,119.706635 
	C297.023438,123.993668 295.126984,126.242348 291.905975,128.127579 
	C285.920471,131.630829 279.472992,133.284637 272.789856,132.075851 
	C270.029144,131.576508 266.627319,129.198257 265.431396,126.742355 
	C263.637054,123.057526 265.812073,119.156761 269.691803,117.967384 
	C277.686096,115.516624 285.891541,113.738724 294.059448,111.903763 
	C294.635040,111.774460 296.064117,113.334641 296.305206,114.305626 
	C296.695312,115.876900 296.428497,117.611275 296.439362,119.706635 
z"/>
</svg>