<svg width="329" height="75" viewBox="0 0 329 75" fill="none" xmlns="http://www.w3.org/2000/svg">
<path d="M222.759 31.9746V15.7121H206.528V0H179.242V50.2091C179.242 63.885 190.334 74.9743 204.014 74.9743H222.759V58.7119H217.538C211.455 58.7119 206.528 53.7863 206.528 47.7051V31.9838H222.759V31.9746Z" fill="#C03800"/>
<path d="M269.231 31.9746V15.7121H253V0H225.714V50.2091C225.714 63.885 236.806 74.9743 250.487 74.9743H269.231V58.7119H264.011C257.928 58.7119 253 53.7863 253 47.7051V31.9838H269.231V31.9746Z" fill="#C03800"/>
<path d="M134.884 15.3618C118.424 15.3618 105.074 28.7075 105.074 45.1626C105.074 61.6177 118.424 74.9634 134.884 74.9634H172.731V15.3618H134.884ZM135.847 57.3067C129.14 57.3067 123.699 51.8676 123.699 45.1626C123.699 38.4577 129.14 33.0185 135.847 33.0185C142.554 33.0185 147.995 38.4577 147.995 45.1626C147.995 51.8676 142.554 57.3067 135.847 57.3067Z" fill="#C03800"/>
<path d="M328.492 29.2761V12.0414H290.865C280.974 12.0414 272.552 19.7278 272.203 29.6063C271.836 39.9802 277.378 48.5013 287.672 48.5013H290.324C292.884 48.5013 294.957 50.5742 294.957 53.1333C294.957 55.6923 292.884 57.7653 290.324 57.7653H274.405V75H309.821C319.712 75 328.134 67.3136 328.483 57.4351C328.85 47.0612 323.308 38.5401 313.014 38.5401H312.5C309.94 38.5401 307.867 36.4672 307.867 33.9081C307.867 31.3491 309.94 29.2761 312.5 29.2761H328.492Z" fill="#C03800"/>
<path d="M25.8004 15.3618L28.2777 34.1467C29.2686 40.7874 38.7097 40.7232 39.6731 34.1467C39.6731 34.1467 41.031 23.8462 42.1504 15.3618H64.5193L66.9966 34.1467C67.9875 40.7874 77.4287 40.7232 78.3921 34.1467C78.3921 34.1467 79.75 23.8462 80.8693 15.3618H106.67L93.8154 74.9634H60.6291L59.0234 62.8193C58.0325 56.1785 48.5913 56.2427 47.6279 62.8193C47.6279 62.8193 46.8756 68.5428 46.0223 74.9634H12.8543L0 15.3618H25.8004Z" fill="#C03800"/>
</svg>
